<svg width="33" height="32" viewBox="0 0 33 32" fill="none" xmlns="http://www.w3.org/2000/svg">
<g clip-path="url(#clip0_0_29)">
<path d="M16.9742 24.08C16.4942 24.4533 15.8142 24.4533 15.3342 24.08L7.13422 17.7067C6.65422 17.3333 5.98756 17.3333 5.50756 17.7067C4.82756 18.24 4.82756 19.2667 5.50756 19.8L14.5209 26.8133C15.4809 27.56 16.8276 27.56 17.8009 26.8133L26.8142 19.8C27.4942 19.2667 27.4942 18.24 26.8142 17.7067L26.8009 17.6933C26.3209 17.32 25.6542 17.32 25.1742 17.6933L16.9742 24.08V24.08ZM17.8142 20.0533L26.8276 13.04C27.5076 12.5067 27.5076 11.4667 26.8276 10.9333L17.8142 3.92C16.8542 3.17333 15.5076 3.17333 14.5342 3.92L5.52089 10.9467C4.84089 11.48 4.84089 12.52 5.52089 13.0533L14.5342 20.0667C15.4942 20.8133 16.8542 20.8133 17.8142 20.0533V20.0533Z" fill="#E18300"/>
</g>
<defs>
<clipPath id="clip0_0_29">
<rect width="32" height="32" fill="white" transform="translate(0.174255)"/>
</clipPath>
</defs>
</svg>
