<?xml version="1.0" encoding="UTF-8"?>
<svg id="Layer_1" data-name="Layer 1" xmlns="http://www.w3.org/2000/svg" xmlns:xlink="http://www.w3.org/1999/xlink" viewBox="0 0 6396.84 2019.24">
  <defs>
    <style>
      .cls-1 {
        fill: url(#New_Gradient_Swatch_2);
        stroke: url(#New_Gradient_Swatch_2-2);
      }

      .cls-1, .cls-2, .cls-3, .cls-4, .cls-5, .cls-6, .cls-7, .cls-8, .cls-9, .cls-10, .cls-11, .cls-12 {
        stroke-miterlimit: 10;
      }

      .cls-1, .cls-2, .cls-5, .cls-6, .cls-7, .cls-8, .cls-9, .cls-10 {
        stroke-width: 10px;
      }

      .cls-2 {
        fill: url(#New_Gradient_Swatch_2-15);
        stroke: url(#New_Gradient_Swatch_2-16);
      }

      .cls-3 {
        stroke-width: 20px;
      }

      .cls-3, .cls-11 {
        fill: none;
      }

      .cls-3, .cls-11, .cls-12 {
        stroke-linecap: round;
      }

      .cls-3, .cls-12 {
        stroke: #009245;
      }

      .cls-4 {
        fill: #e28527;
        stroke: #e28527;
        stroke-width: 13px;
      }

      .cls-5 {
        fill: url(#New_Gradient_Swatch_2-11);
        stroke: url(#New_Gradient_Swatch_2-12);
      }

      .cls-6 {
        fill: url(#New_Gradient_Swatch_2-9);
        stroke: url(#New_Gradient_Swatch_2-10);
      }

      .cls-7 {
        fill: url(#New_Gradient_Swatch_2-3);
        stroke: url(#New_Gradient_Swatch_2-4);
      }

      .cls-8 {
        fill: url(#New_Gradient_Swatch_2-7);
        stroke: url(#New_Gradient_Swatch_2-8);
      }

      .cls-9 {
        fill: url(#New_Gradient_Swatch_2-5);
        stroke: url(#New_Gradient_Swatch_2-6);
      }

      .cls-10 {
        fill: url(#New_Gradient_Swatch_2-13);
        stroke: url(#New_Gradient_Swatch_2-14);
      }

      .cls-11 {
        stroke: #e18426;
        stroke-width: 30px;
      }

      .cls-12 {
        fill: #39b54a;
        stroke-width: 5px;
      }
    </style>
    <linearGradient id="New_Gradient_Swatch_2" data-name="New Gradient Swatch 2" x1="717.2" y1="516.34" x2="874.91" y2="516.34" gradientUnits="userSpaceOnUse">
      <stop offset="0" stop-color="#6cb5e4"/>
      <stop offset="0" stop-color="#69b3e2"/>
      <stop offset=".15" stop-color="#4392ce"/>
      <stop offset=".29" stop-color="#2679bd"/>
      <stop offset=".43" stop-color="#1167b2"/>
      <stop offset=".57" stop-color="#045cab"/>
      <stop offset=".7" stop-color="#0059a9"/>
    </linearGradient>
    <linearGradient id="New_Gradient_Swatch_2-2" data-name="New Gradient Swatch 2" x1="712.2" x2="884.55" xlink:href="#New_Gradient_Swatch_2"/>
    <linearGradient id="New_Gradient_Swatch_2-3" data-name="New Gradient Swatch 2" x1="519.09" y1="578.25" x2="672.88" y2="578.25" xlink:href="#New_Gradient_Swatch_2"/>
    <linearGradient id="New_Gradient_Swatch_2-4" data-name="New Gradient Swatch 2" x1="514.09" y1="578.25" x2="682.17" y2="578.25" xlink:href="#New_Gradient_Swatch_2"/>
    <linearGradient id="New_Gradient_Swatch_2-5" data-name="New Gradient Swatch 2" x1="368.57" y1="710.49" x2="488.84" y2="710.49" xlink:href="#New_Gradient_Swatch_2"/>
    <linearGradient id="New_Gradient_Swatch_2-6" data-name="New Gradient Swatch 2" x1="363.57" y1="709.03" x2="495.14" y2="709.03" xlink:href="#New_Gradient_Swatch_2"/>
    <linearGradient id="New_Gradient_Swatch_2-7" data-name="New Gradient Swatch 2" x1="288.56" y1="912.37" x2="386.77" y2="912.37" xlink:href="#New_Gradient_Swatch_2"/>
    <linearGradient id="New_Gradient_Swatch_2-8" data-name="New Gradient Swatch 2" x1="283.56" y1="909.99" x2="391.77" y2="909.99" xlink:href="#New_Gradient_Swatch_2"/>
    <linearGradient id="New_Gradient_Swatch_2-9" data-name="New Gradient Swatch 2" x1="294.86" y1="1123.06" x2="393.47" y2="1123.06" xlink:href="#New_Gradient_Swatch_2"/>
    <linearGradient id="New_Gradient_Swatch_2-10" data-name="New Gradient Swatch 2" x1="289.86" y1="1120.51" x2="398.47" y2="1120.51" xlink:href="#New_Gradient_Swatch_2"/>
    <linearGradient id="New_Gradient_Swatch_2-11" data-name="New Gradient Swatch 2" x1="392.67" y1="1331" x2="494.68" y2="1331" xlink:href="#New_Gradient_Swatch_2"/>
    <linearGradient id="New_Gradient_Swatch_2-12" data-name="New Gradient Swatch 2" x1="387.67" y1="1329" x2="499.68" y2="1329" xlink:href="#New_Gradient_Swatch_2"/>
    <linearGradient id="New_Gradient_Swatch_2-13" data-name="New Gradient Swatch 2" x1="519.57" y1="1473.29" x2="649.83" y2="1473.29" xlink:href="#New_Gradient_Swatch_2"/>
    <linearGradient id="New_Gradient_Swatch_2-14" data-name="New Gradient Swatch 2" x1="512.38" y1="1472.22" x2="654.83" y2="1472.22" xlink:href="#New_Gradient_Swatch_2"/>
    <linearGradient id="New_Gradient_Swatch_2-15" data-name="New Gradient Swatch 2" x1="691.29" y1="1556.12" x2="851.06" y2="1556.12" xlink:href="#New_Gradient_Swatch_2"/>
    <linearGradient id="New_Gradient_Swatch_2-16" data-name="New Gradient Swatch 2" x1="681.46" y1="1556.12" x2="856.06" y2="1556.12" xlink:href="#New_Gradient_Swatch_2"/>
  </defs>
  <g>
    <path class="cls-1" d="m781.91,562.88c-25.88,8.47-53.74-5.58-62.23-31.38-8.49-25.8,5.6-53.58,31.48-62.04,25.88-8.47,123.76,11.25,123.76,11.25,0,0-67.13,73.71-93,82.18Z"/>
    <path class="cls-12" d="m910.15,480.77s49.56-43.62,110.71-43.62,110.71,19.53,110.71,43.62-49.56,43.62-110.71,43.62-110.71-43.62-110.71-43.62Z"/>
    <path class="cls-7" d="m588.21,623.71c-24.94,10.9-54.03-.42-64.96-25.29-10.93-24.87.42-53.87,25.36-64.77,24.94-10.9,124.27-.63,124.27-.63,0,0-59.73,79.79-84.67,90.69Z"/>
    <path class="cls-9" d="m456.5,761.01c-16.94,21.26-47.96,24.8-69.29,7.91-21.32-16.89-24.88-47.82-7.94-69.08,16.94-21.26,109.57-58.46,109.57-58.46,0,0-15.4,98.37-32.34,119.63Z"/>
    <path class="cls-8" d="m385.49,955.51c-7.11,26.21-34.19,41.71-60.48,34.62-26.29-7.09-41.84-34.09-34.73-60.3,7.11-26.21,77.39-96.94,77.39-96.94,0,0,24.93,96.41,17.82,122.62Z"/>
    <path class="cls-6" d="m393.43,1153.47c1.01,27.13-20.23,49.95-47.45,50.96-27.22,1.01-50.1-20.17-51.11-47.3-1.01-27.13,45.04-115.47,45.04-115.47,0,0,52.51,84.69,53.52,111.82Z"/>
    <path class="cls-5" d="m489.26,1334.66c12.4,24.18,2.79,53.8-21.46,66.16-24.25,12.36-53.96,2.78-66.36-21.39-12.4-24.18-8.02-123.64-8.02-123.64,0,0,83.44,54.7,95.84,78.87Z"/>
    <path class="cls-10" d="m635.26,1453.88c19.33,19.13,19.44,50.26.25,69.53-19.19,19.27-50.41,19.38-69.74.25-19.33-19.13-46.2-115.02-46.2-115.02,0,0,96.36,26.11,115.69,45.24Z"/>
    <path class="cls-2" d="m814.05,1508.3c26.37,6.78,42.24,33.59,35.44,59.88-6.8,26.29-33.69,42.11-60.06,35.33-26.37-6.78-98.14-76-98.14-76,0,0,96.4-25.99,122.77-19.21Z"/>
    <path class="cls-3" d="m1095.13,480.77c203.59,74.27,293.08,283.86,293.08,530.82,0,309.07-229.81,559.62-513.3,559.62"/>
  </g>
  <path class="cls-11" d="m562.03,1148.55c55.43,0,55.43-315.22,110.86-315.22s55.43,315.22,110.87,315.22,55.44-315.22,110.87-315.22,55.43,315.22,110.87,315.22,55.44-315.22,110.88-315.22,55.44,315.22,110.88,315.22"/>
  <g>
    <path class="cls-4" d="m1730.62,1308.7l-28.93,243.15c6.87,2.14,12.38,3.21,16.53,3.21,6.29,0,14.09-2.29,23.4-6.87l-2.15,22.44c-9.6,4.27-17.06,6.41-22.36,6.41-5.59,0-13.83-1.07-24.72-3.21-9.6-2.14-17.56-3.21-23.86-3.21-11.46,0-24.72,3.51-39.77,10.53l3.23-25.64c15.77-8.54,26.02-16.94,30.75-25.19,7.17-13.12,12.69-36.18,16.56-69.15l30.08-255.97c3.73-32.66,5.59-51.89,5.59-57.7,0-5.49-.9-9.62-2.69-12.36-1.79-2.75-5.34-3.96-10.64-3.66l2.79-21.98c14.44-.3,31.73-5.94,51.89-16.91-1.72,11.61-3.95,28.7-6.68,51.28l-16.16,135.06c6.89,3.06,12.7,4.58,17.44,4.58,17.94,0,33.31-13.35,46.08-40.07,12.78-26.71,19.17-58.38,19.17-95.02,0-28.39-5.12-51.74-15.37-70.06-10.25-18.32-24.18-27.47-41.8-27.47-22.5,0-44.5,11.61-65.99,34.8-21.49,23.2-37.62,51.97-48.36,86.32-10.75,34.34-16.12,70.29-16.12,107.84,0,28.39,5.52,52.82,16.57,73.27,5.59,10.07,9.04,17.4,10.33,21.98,1.29,4.58,1.94,9.47,1.94,14.65,0,6.41-1.12,11.98-3.35,16.71-2.24,4.74-4.94,7.1-8.11,7.1-7.79,0-14.71-9.62-20.76-28.85-7.79-25.03-11.68-55.87-11.68-92.5,0-47.01,6.1-90.82,18.29-131.42,12.19-40.6,30.66-74.18,55.41-100.74,24.75-26.56,50.82-39.84,78.22-39.84,25.53,0,46.55,10.23,63.05,30.68,16.49,20.46,24.75,50.68,24.75,90.67,0,37.55-7.56,72.51-22.67,104.86-15.12,32.36-35.92,53.12-62.43,62.28,6.59,28.09,10.82,47.01,12.68,56.78,3.01,16.48,7.59,44.27,13.75,83.34,14.48,91.53,29.46,155.99,44.95,193.4,11.47,27.37,23.87,41.05,37.21,41.05s22.58-13.21,26.45-39.61c2.29-16.69,4.44-27.01,6.45-30.96,2.72-5.47,5.81-8.19,9.25-8.19s6.34,2.59,8.71,7.78c2.37,5.19,3.55,11.45,3.55,18.77,0,18.92-4.88,36.93-14.63,54.03-9.75,17.09-22.3,25.64-37.64,25.64-13.91,0-27.21-7.16-39.9-21.47-12.69-14.32-25.02-37.78-37-70.37-11.97-32.6-22.41-71.74-31.3-117.43-4.44-22.9-10.95-64.87-19.54-125.93-5.15-37.24-8.37-59.53-9.66-66.86l-5.3-.92c-1.27,0-3.1.31-5.5.92Z"/>
    <path class="cls-4" d="m2019.01,1197.42h30.64l-20.23,160.04c-11.91,92.94-17.86,145.83-17.86,158.67,0,5.8.65,10.23,1.94,13.28,1.29,3.06,2.72,4.58,4.3,4.58,2.44,0,5.31-2.29,8.61-6.87,4.73-7.02,13.7-24.73,26.9-53.12l7.1,16.94c-28.83,63.81-50.07,95.7-63.69,95.7-4.59,0-8.5-3.74-11.73-11.22-3.23-7.48-4.84-18.09-4.84-31.83,0-15.87,1.55-37.09,4.66-63.65-12.76,31.14-28.53,58.46-47.3,81.97-12.47,15.57-23.3,23.35-32.47,23.35-5.02,0-8.96-3.52-11.82-10.55-2.87-7.03-4.3-18.19-4.3-33.47,0-11.92.65-24.76,1.94-38.52,1.86-19.26,6.6-57.93,14.2-116.01,9.61-73.67,14.42-117.84,14.42-132.52,0-8.56-1.44-12.84-4.3-12.84-2.58,0-6.1,2.83-10.54,8.47-4.45,5.65-12.05,19.31-22.81,40.98l-9.47-16.03c19.22-36.63,33.89-60.67,44-72.12,10.11-11.45,18.25-17.17,24.42-17.17,3.44,0,6.24,2.68,8.39,8.03,2.15,5.35,3.23,13.68,3.23,24.98,0,21.09-5.16,72.91-15.49,155.45-9.18,74.28-13.77,116.63-13.77,127.01,0,6.42.96,11.92,2.9,16.51,1.93,4.59,4.05,6.88,6.34,6.88,8.02,0,19.42-14.12,34.18-42.36,14.76-28.23,24.44-60.37,29.03-96.39l23.43-188.2Z"/>
    <path class="cls-4" d="m2082.79,1293.13l-7.32-16.03c18.38-37.43,33.02-62.28,43.93-74.55,10.91-12.27,20.24-18.41,28-18.41,3.01,0,5.38,1.37,7.1,4.12s2.59,5.95,2.59,9.62c0,2.75-.36,7.63-1.08,14.65l-9.7,92.16c14.6-34.53,32.94-66.76,54.99-96.71,11.74-15.58,21.41-23.37,29-23.37,5.58,0,9.95,3.82,13.1,11.45,3.15,7.63,4.73,18.62,4.73,32.97,0,9.47-.65,20.15-1.93,32.05-2.29,19.85-8.29,63.04-18.01,129.59-9.15,62.28-13.72,103.65-13.72,124.09,0,6.26.43,10.95,1.29,14.08.86,3.13,2.08,4.69,3.66,4.69,4.16,0,10.69-8.54,19.58-25.64,6.31-12.21,12.62-23.5,18.94-33.89l5.38,16.48c-13.2,30.99-26.9,55.9-41.1,74.73-9.04,12.15-16.5,18.22-22.38,18.22-5.45,0-9.68-4.2-12.7-12.59s-4.52-22.05-4.52-40.98c0-27.17,7.96-94.79,23.89-202.86,4.88-38.46,7.32-60.9,7.32-67.31,0-9.46-2.66-14.2-7.96-14.2-5.74,0-13.13,6.43-22.16,19.26-13.49,18.95-24.75,41.27-33.78,66.95-5.74,16.51-10.54,42.8-14.42,78.87l-17.43,160.04h-32.06c6.03-45.85,11.26-89.72,15.71-131.61l19.15-174.25c.72-7.03,1.08-12.07,1.08-15.12,0-8.25-1.44-12.38-4.3-12.38-2.3,0-5.59,3.23-9.9,9.69-8.9,12.62-17.21,28.01-24.96,46.17Z"/>
    <path class="cls-4" d="m2285.49,1293.13l-7.32-16.03c18.38-37.43,33.02-62.28,43.93-74.55,10.91-12.27,20.24-18.41,28-18.41,3.01,0,5.38,1.37,7.1,4.12s2.59,5.95,2.59,9.62c0,2.75-.36,7.63-1.08,14.65l-9.7,92.16c14.6-34.53,32.94-66.76,54.99-96.71,11.74-15.58,21.41-23.37,29-23.37,5.58,0,9.95,3.82,13.1,11.45,3.15,7.63,4.73,18.62,4.73,32.97,0,9.47-.65,20.15-1.93,32.05-2.29,19.85-8.29,63.04-18.01,129.59-9.15,62.28-13.72,103.65-13.72,124.09,0,6.26.43,10.95,1.29,14.08.86,3.13,2.08,4.69,3.66,4.69,4.16,0,10.69-8.54,19.58-25.64,6.31-12.21,12.62-23.5,18.94-33.89l5.38,16.48c-13.2,30.99-26.9,55.9-41.1,74.73-9.04,12.15-16.5,18.22-22.38,18.22-5.45,0-9.68-4.2-12.7-12.59-3.01-8.39-4.52-22.05-4.52-40.98,0-27.17,7.96-94.79,23.89-202.86,4.88-38.46,7.32-60.9,7.32-67.31,0-9.46-2.66-14.2-7.96-14.2-5.74,0-13.13,6.43-22.16,19.26-13.49,18.95-24.75,41.27-33.78,66.95-5.74,16.51-10.54,42.8-14.42,78.87l-17.43,160.04h-32.06c6.03-45.85,11.26-89.72,15.71-131.61l19.15-174.25c.72-7.03,1.08-12.07,1.08-15.12,0-8.25-1.44-12.38-4.3-12.38-2.3,0-5.59,3.23-9.9,9.69-8.9,12.62-17.21,28.01-24.96,46.17Z"/>
    <path class="cls-4" d="m2488.62,1291.75l-9.47-15.57c14.33-33.58,27.4-57.47,39.22-71.66,11.82-14.2,21.88-21.29,30.2-21.29,4.59,0,8.1,2.14,10.53,6.41,2.43,4.28,3.65,10.07,3.65,17.4,0,8.86-4.65,46.41-13.95,112.65-15.16,108.38-22.75,173.71-22.75,195.99,0,4.28.5,7.86,1.51,10.76,1,2.91,2.08,4.35,3.23,4.35,4.59,0,16.35-18.92,35.29-56.78l8.39,17.4c-19.66,39.38-34,64.57-43.04,75.56s-16.43,16.48-22.16,16.48c-5.02,0-9-3.36-11.94-10.07-2.94-6.71-4.41-16.03-4.41-27.93,0-38.16,10.76-131.42,32.28-279.79,1-7.02,1.51-13.28,1.51-18.77,0-6.1-1.29-9.16-3.87-9.16-2.87,0-6.13,2.45-9.79,7.33-3.66,4.89-11.8,20.46-24.42,46.71Zm84.57-303.14c4.44,0,8.1,3.13,10.97,9.39,2.87,6.26,4.3,14.27,4.3,24.04,0,13.44-2.19,25.26-6.56,35.49-4.38,10.23-9.29,15.34-14.74,15.34-4.3,0-7.89-3.21-10.76-9.62-2.87-6.41-4.3-14.8-4.3-25.19,0-13.74,2.08-25.41,6.24-35.03,4.16-9.62,9.11-14.42,14.85-14.42Z"/>
    <path class="cls-4" d="m2593.84,1293.13l-7.32-16.03c18.38-37.43,33.02-62.28,43.93-74.55,10.91-12.27,20.24-18.41,28-18.41,3.01,0,5.38,1.37,7.1,4.12s2.59,5.95,2.59,9.62c0,2.75-.36,7.63-1.08,14.65l-9.7,92.16c14.6-34.53,32.94-66.76,54.99-96.71,11.74-15.58,21.41-23.37,29-23.37,5.58,0,9.95,3.82,13.1,11.45,3.15,7.63,4.73,18.62,4.73,32.97,0,9.47-.65,20.15-1.93,32.05-2.29,19.85-8.29,63.04-18.01,129.59-9.15,62.28-13.72,103.65-13.72,124.09,0,6.26.43,10.95,1.29,14.08.86,3.13,2.08,4.69,3.66,4.69,4.16,0,10.69-8.54,19.58-25.64,6.31-12.21,12.62-23.5,18.94-33.89l5.38,16.48c-13.2,30.99-26.9,55.9-41.1,74.73-9.04,12.15-16.5,18.22-22.38,18.22-5.45,0-9.68-4.2-12.7-12.59s-4.52-22.05-4.52-40.98c0-27.17,7.96-94.79,23.89-202.86,4.88-38.46,7.32-60.9,7.32-67.31,0-9.46-2.66-14.2-7.96-14.2-5.74,0-13.13,6.43-22.16,19.26-13.49,18.95-24.75,41.27-33.78,66.95-5.74,16.51-10.54,42.8-14.42,78.87l-17.43,160.04h-32.06c6.03-45.85,11.26-89.72,15.71-131.61l19.15-174.25c.72-7.03,1.08-12.07,1.08-15.12,0-8.25-1.44-12.38-4.3-12.38-2.3,0-5.59,3.23-9.9,9.69-8.9,12.62-17.21,28.01-24.96,46.17Z"/>
    <path class="cls-4" d="m2934.96,1182.31l17.29-8.28c-10.44,71.45-20.02,143.05-28.74,214.8-6.29,51.29-10.65,94.03-13.08,128.22-1.29,17.1-2,38.77-2.14,65.02-.29,43.96-2.59,79.37-6.89,106.24-6.03,37.55-17.26,67.77-33.69,90.67-16.43,22.89-35.92,34.34-58.45,34.34-19.37,0-34.62-9.69-45.74-29.08-11.12-19.39-16.68-41.6-16.68-66.63s4.46-47.78,13.37-69.15c6.62-16.18,20.42-35.72,41.42-58.61,10.64-11.91,20.64-24.11,29.99-36.63-10.67,11.61-18.96,17.4-24.86,17.4-5.34,0-10.06-5.27-14.16-15.8-4.11-10.53-6.16-24.5-6.16-41.9,0-56.17,7.85-111.96,23.57-167.37,15.72-55.41,34.62-97,56.72-124.78,13.63-17.09,30.71-25.64,51.23-25.64,4.02,0,8.97.31,14.85.92l2.15-13.74Zm-53.21,317.33c-9.77,18.62-28.6,48.39-56.49,89.29-24.58,35.41-39.67,60.9-45.27,76.47-5.61,15.87-8.41,32.66-8.41,50.37s3.63,33.04,10.89,46.94c7.26,13.89,16.06,20.84,26.41,20.84,9.77,0,19.26-5.12,28.46-15.34,9.2-10.23,17.21-25.04,24.04-44.42,6.83-19.39,11.53-41.29,14.12-65.71,2.59-24.43,3.95-56.78,4.1-97.08.14-8.85.86-29.31,2.14-61.36Zm29.18-249.56c-6.88-2.75-12.97-4.12-18.27-4.12-13.62,0-25.3,7.63-35.04,22.9-9.74,15.27-18.05,40.91-24.93,76.93-9.6,50.99-14.4,93.87-14.4,128.67,0,14.35,1.9,26.41,5.7,36.18,3.8,9.77,8.06,14.65,12.79,14.65,5.73,0,12.83-5.87,21.28-17.63,8.45-11.75,15.37-26.48,20.74-44.19,5.37-17.7,10.86-48.23,16.45-91.58l15.69-121.81Z"/>
    <path class="cls-4" d="m3289.96,1610.92l4.3-294.9c1-65.32,3.87-126.68,8.61-184.08-8.32,21.68-18.79,54.03-31.42,97.08-37.73,129.13-78.4,250.33-122.01,363.58-3.16-40.6-5.7-88.07-7.64-142.41-1.94-54.33-2.9-101.96-2.9-142.87,0-57.7,2.55-103.72,7.64-138.06,5.09-34.34,14.74-71.96,28.94-112.88-26.97,6.41-48.38,24.58-64.23,54.49-15.85,29.92-23.78,60.6-23.78,92.04,0,11.61,1.54,23.35,4.62,35.26,3.66,14.35,5.5,23.97,5.5,28.85,0,7.94-1.19,14.5-3.58,19.69-2.39,5.19-5.31,7.78-8.78,7.78-4.63,0-8.38-4.42-11.27-13.28-3.9-11.6-5.85-26.56-5.85-44.88,0-27.78,3.77-56.17,11.3-85.17,7.53-29,17.54-52.89,30.02-71.66,12.48-18.77,26.68-32.43,42.61-40.98,8.75-4.58,23.45-9.31,44.11-14.2,7.03-1.83,13.99-3.81,20.87-5.95-31.13,92.81-46.69,186.53-46.69,281.16,0,29.46,1.1,88.21,3.31,176.27,8.44-21.62,16.09-42.48,22.96-62.58,4.72-14.01,17.02-52.84,36.9-116.5,32.04-103.55,56-176.48,71.87-218.82,11.28-29.31,24.01-56.62,38.18-81.97-13.79,115.06-20.69,280.32-20.69,495.78l54.04-142.27c14.49-38.46,29.16-83.26,44-134.4,14.85-51.13,24.64-91.96,29.37-122.49,3.01-19.84,4.52-38.62,4.52-56.32s-1.87-35.72-5.59-54.95c-2.3-12.21-3.44-21.06-3.44-26.56,0-8.24,1.4-15.18,4.2-20.84,2.8-5.65,6.35-8.47,10.65-8.47,5.45,0,9.75,5.19,12.91,15.57,4.59,14.05,6.89,32.67,6.89,55.87,0,30.84-4.99,71.43-14.96,121.81-9.97,50.37-32.1,123.94-66.38,220.71-44.19,123.64-80.55,214.15-109.1,271.54Z"/>
    <path class="cls-4" d="m3597.66,1177.73l14.2-6.41-16.14,115.85c-6.46,46.1-12.55,99.22-18.29,159.35-3.16,32.67-4.73,53.73-4.73,63.19s1.79,14.2,5.38,14.2c2.29,0,5.95-3.21,10.97-9.62,8.89-11.29,17.43-25.34,25.61-42.13l6.89,17.86c-16.35,31.75-26.83,50.99-31.42,57.7-9.18,13.44-17.93,23.35-26.25,29.76-5.45,4.27-10.76,6.41-15.92,6.41-3.73,0-6.53-1.83-8.39-5.49-1.87-3.66-2.8-9-2.8-16.03,0-4.58.57-10.83,1.72-18.77l8.61-62.28c-12.34,31.45-27.04,58.46-44.11,81.05-10.47,14.04-20.09,21.06-28.83,21.06s-14.71-6.26-19.15-18.77c-6.03-16.79-9.04-38.77-9.04-65.94,0-32.35,4.05-68.38,12.16-108.07,8.1-39.68,18.97-75.71,32.6-108.07,13.63-32.35,27.97-56.17,43.04-71.43,11.62-11.6,26.54-17.4,44.76-17.4,4.59,0,9.25.62,13.99,1.83l5.16-17.86Zm-26.68,70.06c-7.75-3.36-14.28-5.04-19.58-5.04-12.91,0-24.17,7.56-33.78,22.67-9.61,15.11-18.54,42.29-26.79,81.51-8.25,39.23-12.37,78.38-12.37,117.46,0,20.76,1.65,35.72,4.95,44.88,3.3,9.16,7.6,13.74,12.91,13.74,9.9,0,20.51-11.37,31.85-34.11,11.33-22.74,19.65-55.48,24.96-98.22l17.86-142.87Z"/>
    <path class="cls-4" d="m3696.22,1115l34.16-27.89-15.46,128.17h44.56l-3.44,32.51h-44.59l-18.77,153.46c-5.96,46.07-8.94,78.1-8.94,96.11,0,8.24.82,14.2,2.47,17.86,1.65,3.66,3.91,5.49,6.78,5.49,4.44,0,11.26-5.65,20.44-16.94,12.05-14.95,23.53-31.9,34.43-50.83l8.18,21.06c-31.42,50.37-52.43,81.21-63.05,92.5-10.62,11.29-19.15,16.94-25.61,16.94-5.31,0-9.5-4.12-12.59-12.36-3.09-8.24-4.63-21.67-4.63-40.3,0-21.98,2.72-55.56,8.18-100.74l21.9-182.25h-34.86l3.87-32.51h34.9l12.06-100.28Z"/>
    <path class="cls-4" d="m3889.67,1455.69l7.1,20.15c-35.15,71.13-65.27,106.69-90.38,106.69-10.19,0-17.97-7.33-23.35-21.98s-8.07-38.16-8.07-70.52c0-65.32,9.32-130.35,27.97-195.07,20.94-73.57,45.97-110.36,75.1-110.36,10.18,0,17.97,5.42,23.35,16.26,5.38,10.84,8.07,25.72,8.07,44.65s-3.23,39.38-9.68,58.61c-6.46,19.23-18,39.23-34.64,59.99-8.32,10.07-26.11,28.24-53.36,54.49-1.29,16.48-1.94,32.21-1.94,47.17,0,21.68,1.61,36.79,4.84,45.33,3.23,8.55,7.92,12.82,14.09,12.82s12.34-3.51,19.37-10.53c9.47-9.46,23.31-28.69,41.53-57.7Zm-75.31-66.4c23.09-21.98,40.45-45.63,52.07-70.98,7.89-17.7,11.83-35.26,11.83-52.66,0-13.12-1.61-23.58-4.84-31.37s-7.42-11.68-12.59-11.68-10.47,4.28-15.49,12.82c-6.74,11.3-12.41,28.39-17,51.29-6.6,33.59-11.26,67.77-13.99,102.57Z"/>
    <path class="cls-4" d="m3966.49,1570.62h-32.06l15.06-123.18c7.32-60.44,13.7-117.83,19.15-172.18,1.29-13.43,1.94-21.82,1.94-25.19,0-7.33-1.58-10.99-4.73-10.99-2.15,0-5.45,3.13-9.9,9.39-4.45,6.26-12.48,21.75-24.1,46.48l-6.67-16.03c13.76-31.44,27.5-55.02,41.19-70.75,13.69-15.72,24.2-23.58,31.51-23.58,2.58,0,4.62,1.3,6.13,3.89,1.51,2.6,2.26,5.88,2.26,9.85s-.95,14.57-2.83,31.75l-9.36,82.38c14.52-48.72,30.9-90.4,49.16-125.03,8.77-16.54,16.1-24.82,21.99-24.82,4.31,0,7.9,2.98,10.78,8.93s4.31,12.9,4.31,20.84-1.4,15.27-4.19,21.06c-2.8,5.8-9.78,12.67-20.96,20.61-10.61,7.64-19.24,16.8-25.91,27.49-6.67,10.69-13.98,27.02-21.93,49.01-7.95,21.99-13.52,41.15-16.68,57.48-3.16,16.33-7.98,54.26-14.45,113.77l-9.71,88.82Z"/>
    <path class="cls-4" d="m4153.26,1185.52c12.77,0,22.63,5.27,29.59,15.8,6.96,10.53,10.44,22.67,10.44,36.4,0,8.24-1.47,15.42-4.41,21.52-2.94,6.11-6.49,9.16-10.65,9.16-2.73,0-5.09-1.29-7.1-3.89-2.01-2.59-4.88-9.08-8.61-19.46-7.03-19.84-13.99-29.76-20.87-29.76-5.88,0-11.08,4.81-15.6,14.41-4.52,9.6-6.78,21.57-6.78,35.9,0,12.51,1.43,24.63,4.3,36.36,2.87,11.74,10.11,30.72,21.73,56.94,15.92,35.98,23.89,70.13,23.89,102.44s-6.46,60.6-19.37,84.84c-12.91,24.24-29.55,36.35-49.92,36.35-17.07,0-29.77-7.41-38.09-22.21-8.32-14.8-12.48-33.04-12.48-54.72,0-10.68,1.58-19.53,4.73-26.56,3.15-7.02,7.03-10.53,11.62-10.53,4.01,0,7.46,2.83,10.33,8.47,2.87,5.65,4.3,12.29,4.3,19.92,0,3.06-.1,7.03-.29,11.91-.1,3.97-.14,7.33-.14,10.07,0,10.07,2,18.62,6.01,25.64,3.86,7.03,9.15,10.53,15.87,10.53,7.72,0,14.51-2.82,20.37-8.46,5.86-5.64,10.44-14.18,13.73-25.61,3.29-11.43,4.93-22.79,4.93-34.07s-1.54-21.95-4.63-32.93c-3.09-10.98-10.01-29.12-20.76-54.43-14.92-35.37-22.38-69.36-22.38-101.99,0-29.88,5.67-56.03,17-78.44,11.33-22.41,25.75-33.61,43.25-33.61Z"/>
    <path class="cls-4" d="m4523.37,1610.92l4.3-294.9c1-65.32,3.87-126.68,8.61-184.08-8.32,21.68-18.79,54.03-31.42,97.08-37.73,129.13-78.4,250.33-122.01,363.58-3.16-40.6-5.7-88.07-7.64-142.41-1.94-54.33-2.9-101.96-2.9-142.87,0-57.7,2.55-103.72,7.64-138.06,5.09-34.34,14.74-71.96,28.94-112.88-26.97,6.41-48.38,24.58-64.23,54.49-15.85,29.92-23.78,60.6-23.78,92.04,0,11.61,1.54,23.35,4.62,35.26,3.66,14.35,5.5,23.97,5.5,28.85,0,7.94-1.19,14.5-3.58,19.69-2.39,5.19-5.31,7.78-8.78,7.78-4.63,0-8.38-4.42-11.27-13.28-3.9-11.6-5.85-26.56-5.85-44.88,0-27.78,3.77-56.17,11.3-85.17,7.53-29,17.54-52.89,30.02-71.66,12.48-18.77,26.68-32.43,42.61-40.98,8.75-4.58,23.45-9.31,44.11-14.2,7.03-1.83,13.99-3.81,20.87-5.95-31.13,92.81-46.69,186.53-46.69,281.16,0,29.46,1.1,88.21,3.31,176.27,8.44-21.62,16.09-42.48,22.96-62.58,4.72-14.01,17.02-52.84,36.9-116.5,32.04-103.55,56-176.48,71.87-218.82,11.28-29.31,24.01-56.62,38.18-81.97-13.79,115.06-20.69,280.32-20.69,495.78l54.04-142.27c14.49-38.46,29.16-83.26,44-134.4,14.85-51.13,24.64-91.96,29.37-122.49,3.01-19.84,4.52-38.62,4.52-56.32s-1.87-35.72-5.59-54.95c-2.3-12.21-3.44-21.06-3.44-26.56,0-8.24,1.4-15.18,4.2-20.84,2.8-5.65,6.35-8.47,10.65-8.47,5.45,0,9.75,5.19,12.91,15.57,4.59,14.05,6.89,32.67,6.89,55.87,0,30.84-4.99,71.43-14.96,121.81-9.97,50.37-32.1,123.94-66.38,220.71-44.19,123.64-80.55,214.15-109.1,271.54Z"/>
    <path class="cls-4" d="m4797.08,1455.69l7.1,20.15c-35.15,71.13-65.27,106.69-90.38,106.69-10.19,0-17.97-7.33-23.35-21.98s-8.07-38.16-8.07-70.52c0-65.32,9.32-130.35,27.97-195.07,20.94-73.57,45.97-110.36,75.1-110.36,10.18,0,17.97,5.42,23.35,16.26,5.38,10.84,8.07,25.72,8.07,44.65s-3.23,39.38-9.68,58.61c-6.46,19.23-18,39.23-34.64,59.99-8.32,10.07-26.11,28.24-53.36,54.49-1.29,16.48-1.94,32.21-1.94,47.17,0,21.68,1.61,36.79,4.84,45.33,3.23,8.55,7.92,12.82,14.09,12.82s12.34-3.51,19.37-10.53c9.47-9.46,23.31-28.69,41.53-57.7Zm-75.31-66.4c23.09-21.98,40.45-45.63,52.07-70.98,7.89-17.7,11.83-35.26,11.83-52.66,0-13.12-1.61-23.58-4.84-31.37s-7.42-11.68-12.59-11.68-10.47,4.28-15.49,12.82c-6.74,11.3-12.41,28.39-17,51.29-6.6,33.59-11.26,67.77-13.99,102.57Z"/>
    <path class="cls-4" d="m4923.61,1460.27l7.32,16.48c-11.19,26.87-24.42,51.37-39.7,73.5-15.28,22.13-27.87,33.2-37.76,33.2-4.45,0-8.11-3.59-10.97-10.76-2.87-7.17-4.3-17.01-4.3-29.54,0-24.42,4.44-75.1,13.32-152.03l23.21-201.02c8.45-72.65,15.54-121.35,21.28-146.07,8.88-37.41,21.45-66.45,37.71-87.13,16.26-20.68,33.42-31.02,51.47-31.02,6.16,0,10.99,3.16,14.5,9.45,3.51,6.3,5.27,13.91,5.27,22.82,0,9.85-1.72,17.92-5.15,24.21-3.43,6.3-8.43,9.45-15.01,9.45-4.29,0-10.37-1.52-18.23-4.58-6.86-2.44-13.22-3.66-19.08-3.66s-10.29,2.58-13.29,7.75c-4.15,7.3-7.9,22.64-11.26,46.04-3.36,23.4-8.83,69.57-16.4,138.54l-21.47,191.87c-10.62,96.16-15.92,146.38-15.92,150.65,0,9.77,1.65,14.65,4.95,14.65s7.75-3.96,13.78-11.91c11.91-15.87,23.83-36.18,35.74-60.9Z"/>
    <path class="cls-4" d="m5029.26,1460.27l7.32,16.48c-11.19,26.87-24.42,51.37-39.7,73.5-15.28,22.13-27.87,33.2-37.76,33.2-4.45,0-8.11-3.59-10.97-10.76-2.87-7.17-4.3-17.01-4.3-29.54,0-24.42,4.44-75.1,13.32-152.03l23.21-201.02c8.45-72.65,15.54-121.35,21.28-146.07,8.88-37.41,21.45-66.45,37.71-87.13,16.26-20.68,33.42-31.02,51.47-31.02,6.16,0,10.99,3.16,14.5,9.45,3.51,6.3,5.27,13.91,5.27,22.82,0,9.85-1.72,17.92-5.15,24.21-3.43,6.3-8.43,9.45-15.01,9.45-4.29,0-10.37-1.52-18.23-4.58-6.86-2.44-13.22-3.66-19.08-3.66s-10.29,2.58-13.29,7.75c-4.15,7.3-7.9,22.64-11.26,46.04-3.36,23.4-8.83,69.57-16.4,138.54l-21.47,191.87c-10.62,96.16-15.92,146.38-15.92,150.65,0,9.77,1.65,14.65,4.95,14.65s7.75-3.96,13.78-11.91c11.91-15.87,23.83-36.18,35.74-60.9Z"/>
    <path class="cls-4" d="m5051.86,1293.13l-7.32-16.03c18.38-37.43,33.02-62.28,43.93-74.55,10.91-12.27,20.24-18.41,28-18.41,3.01,0,5.38,1.37,7.1,4.12s2.59,5.95,2.59,9.62c0,2.75-.36,7.63-1.08,14.65l-9.7,92.16c14.6-34.53,32.94-66.76,54.99-96.71,11.74-15.58,21.41-23.37,29-23.37,5.58,0,9.95,3.82,13.1,11.45,3.15,7.63,4.73,18.62,4.73,32.97,0,9.47-.65,20.15-1.93,32.05-2.29,19.85-8.29,63.04-18.01,129.59-9.15,62.28-13.72,103.65-13.72,124.09,0,6.26.43,10.95,1.29,14.08.86,3.13,2.08,4.69,3.66,4.69,4.16,0,10.69-8.54,19.58-25.64,6.31-12.21,12.62-23.5,18.94-33.89l5.38,16.48c-13.2,30.99-26.9,55.9-41.1,74.73-9.04,12.15-16.5,18.22-22.38,18.22-5.45,0-9.68-4.2-12.7-12.59s-4.52-22.05-4.52-40.98c0-27.17,7.96-94.79,23.89-202.86,4.88-38.46,7.32-60.9,7.32-67.31,0-9.46-2.66-14.2-7.96-14.2-5.74,0-13.13,6.43-22.16,19.26-13.49,18.95-24.75,41.27-33.78,66.95-5.74,16.51-10.54,42.8-14.42,78.87l-17.43,160.04h-32.06c6.03-45.85,11.26-89.72,15.71-131.61l19.15-174.25c.72-7.03,1.08-12.07,1.08-15.12,0-8.25-1.44-12.38-4.3-12.38-2.3,0-5.59,3.23-9.9,9.69-8.9,12.62-17.21,28.01-24.96,46.17Z"/>
    <path class="cls-4" d="m5360.86,1455.69l7.1,20.15c-35.15,71.13-65.27,106.69-90.38,106.69-10.19,0-17.97-7.33-23.35-21.98-5.38-14.65-8.07-38.16-8.07-70.52,0-65.32,9.32-130.35,27.97-195.07,20.94-73.57,45.97-110.36,75.1-110.36,10.18,0,17.97,5.42,23.35,16.26,5.38,10.84,8.07,25.72,8.07,44.65s-3.23,39.38-9.68,58.61c-6.46,19.23-18,39.23-34.64,59.99-8.32,10.07-26.11,28.24-53.36,54.49-1.29,16.48-1.94,32.21-1.94,47.17,0,21.68,1.61,36.79,4.84,45.33,3.23,8.55,7.92,12.82,14.09,12.82s12.34-3.51,19.37-10.53c9.47-9.46,23.31-28.69,41.53-57.7Zm-75.31-66.4c23.09-21.98,40.45-45.63,52.07-70.98,7.89-17.7,11.83-35.26,11.83-52.66,0-13.12-1.61-23.58-4.84-31.37s-7.42-11.68-12.59-11.68-10.47,4.28-15.49,12.82c-6.74,11.3-12.41,28.39-17,51.29-6.6,33.59-11.26,67.77-13.99,102.57Z"/>
    <path class="cls-4" d="m5492.33,1185.52c12.77,0,22.63,5.27,29.59,15.8,6.96,10.53,10.44,22.67,10.44,36.4,0,8.24-1.47,15.42-4.41,21.52-2.94,6.11-6.49,9.16-10.65,9.16-2.73,0-5.09-1.29-7.1-3.89-2.01-2.59-4.88-9.08-8.61-19.46-7.03-19.84-13.99-29.76-20.87-29.76-5.88,0-11.08,4.81-15.6,14.41-4.52,9.6-6.78,21.57-6.78,35.9,0,12.51,1.43,24.63,4.3,36.36,2.87,11.74,10.11,30.72,21.73,56.94,15.92,35.98,23.89,70.13,23.89,102.44s-6.46,60.6-19.37,84.84c-12.91,24.24-29.55,36.35-49.92,36.35-17.07,0-29.77-7.41-38.09-22.21-8.32-14.8-12.48-33.04-12.48-54.72,0-10.68,1.58-19.53,4.73-26.56,3.15-7.02,7.03-10.53,11.62-10.53,4.01,0,7.46,2.83,10.33,8.47,2.87,5.65,4.3,12.29,4.3,19.92,0,3.06-.1,7.03-.29,11.91-.1,3.97-.14,7.33-.14,10.07,0,10.07,2,18.62,6.01,25.64,3.86,7.03,9.15,10.53,15.87,10.53,7.72,0,14.51-2.82,20.37-8.46,5.86-5.64,10.44-14.18,13.73-25.61,3.29-11.43,4.93-22.79,4.93-34.07s-1.54-21.95-4.63-32.93c-3.09-10.98-10.01-29.12-20.76-54.43-14.92-35.37-22.38-69.36-22.38-101.99,0-29.88,5.67-56.03,17-78.44,11.33-22.41,25.75-33.61,43.25-33.61Z"/>
    <path class="cls-4" d="m5633.28,1185.52c12.77,0,22.63,5.27,29.59,15.8,6.96,10.53,10.44,22.67,10.44,36.4,0,8.24-1.47,15.42-4.41,21.52-2.94,6.11-6.49,9.16-10.65,9.16-2.73,0-5.09-1.29-7.1-3.89-2.01-2.59-4.88-9.08-8.61-19.46-7.03-19.84-13.99-29.76-20.87-29.76-5.88,0-11.08,4.81-15.6,14.41-4.52,9.6-6.78,21.57-6.78,35.9,0,12.51,1.43,24.63,4.3,36.36,2.87,11.74,10.11,30.72,21.73,56.94,15.92,35.98,23.89,70.13,23.89,102.44s-6.46,60.6-19.37,84.84c-12.91,24.24-29.55,36.35-49.92,36.35-17.07,0-29.77-7.41-38.09-22.21-8.32-14.8-12.48-33.04-12.48-54.72,0-10.68,1.58-19.53,4.73-26.56,3.15-7.02,7.03-10.53,11.62-10.53,4.01,0,7.46,2.83,10.33,8.47,2.87,5.65,4.3,12.29,4.3,19.92,0,3.06-.1,7.03-.29,11.91-.1,3.97-.14,7.33-.14,10.07,0,10.07,2,18.62,6.01,25.64,3.86,7.03,9.15,10.53,15.87,10.53,7.72,0,14.51-2.82,20.37-8.46,5.86-5.64,10.44-14.18,13.73-25.61,3.29-11.43,4.93-22.79,4.93-34.07s-1.54-21.95-4.63-32.93c-3.09-10.98-10.01-29.12-20.76-54.43-14.92-35.37-22.38-69.36-22.38-101.99,0-29.88,5.67-56.03,17-78.44,11.33-22.41,25.75-33.61,43.25-33.61Z"/>
  </g>
</svg>