<?xml version="1.0" encoding="UTF-8"?>
<svg id="Layer_1" data-name="Layer 1" xmlns="http://www.w3.org/2000/svg" viewBox="0 0 6396.84 2019.24">
  <defs>
    <style>
      .cls-1 {
        fill: #e28527;
        stroke: #e28527;
        stroke-width: 13px;
      }

      .cls-1, .cls-2, .cls-3, .cls-4 {
        stroke-miterlimit: 10;
      }

      .cls-2 {
        stroke: #0059a9;
      }

      .cls-2, .cls-3, .cls-4 {
        fill: none;
      }

      .cls-2, .cls-4 {
        stroke-width: 50px;
      }

      .cls-3 {
        stroke: #e18426;
        stroke-linecap: round;
        stroke-width: 30px;
      }

      .cls-4 {
        stroke: #39b54a;
      }
    </style>
  </defs>
  <g>
    <path class="cls-1" d="m1867.29,1153.08l-33.01,277.44c7.84,2.44,14.13,3.66,18.86,3.66,7.18,0,16.08-2.61,26.7-7.84l-2.45,25.6c-10.96,4.87-19.46,7.31-25.51,7.31-6.38,0-15.78-1.22-28.21-3.66-10.96-2.44-20.03-3.66-27.23-3.66-13.08,0-28.21,4-45.38,12.02l3.68-29.26c17.99-9.75,29.69-19.33,35.09-28.74,8.18-14.97,14.47-41.28,18.89-78.89l34.33-292.07c4.25-37.27,6.38-59.21,6.38-65.83,0-6.27-1.02-10.97-3.07-14.11-2.04-3.13-6.09-4.52-12.14-4.18l3.19-25.08c16.47-.34,36.21-6.78,59.21-19.29-1.97,13.24-4.51,32.74-7.62,58.51l-18.44,154.1c7.86,3.49,14.49,5.22,19.9,5.22,20.47,0,38-15.23,52.58-45.72,14.58-30.48,21.87-66.62,21.87-108.41,0-32.39-5.85-59.04-17.54-79.94-11.69-20.9-27.59-31.35-47.7-31.35-25.67,0-50.77,13.24-75.29,39.71-24.53,26.48-42.92,59.3-55.18,98.49-12.26,39.19-18.39,80.2-18.39,123.04,0,32.39,6.3,60.26,18.91,83.6,6.38,11.49,10.31,19.85,11.79,25.08,1.47,5.22,2.21,10.8,2.21,16.72,0,7.31-1.28,13.67-3.83,19.07-2.55,5.4-5.64,8.1-9.25,8.1-8.88,0-16.78-10.97-23.69-32.92-8.88-28.56-13.32-63.74-13.32-105.54,0-53.64,6.96-103.62,20.87-149.95,13.91-46.32,34.99-84.64,63.22-114.95,28.23-30.3,57.98-45.46,89.25-45.46,29.13,0,53.11,11.67,71.94,35.01,18.82,23.34,28.23,57.82,28.23,103.45,0,42.84-8.62,82.73-25.87,119.65-17.25,36.92-40.99,60.61-71.24,71.06,7.52,32.05,12.34,53.64,14.47,64.79,3.43,18.81,8.66,50.51,15.69,95.09,16.52,104.44,33.62,177.99,51.29,220.67,13.09,31.23,27.24,46.84,42.46,46.84s25.77-15.07,30.18-45.19c2.62-19.05,5.07-30.82,7.36-35.32,3.11-6.24,6.63-9.35,10.55-9.35s7.24,2.96,9.94,8.88c2.7,5.92,4.05,13.06,4.05,21.42,0,21.59-5.57,42.14-16.69,61.65-11.13,19.5-25.44,29.26-42.95,29.26-15.87,0-31.05-8.17-45.53-24.5-14.48-16.34-28.55-43.1-42.21-80.29-13.66-37.19-25.57-81.85-35.71-133.98-5.06-26.12-12.5-74.01-22.3-143.68-5.88-42.49-9.56-67.92-11.02-76.28l-6.04-1.04c-1.45,0-3.54.35-6.28,1.04Z"/>
    <path class="cls-1" d="m2196.35,1026.12h34.96l-23.08,182.61c-13.59,106.05-20.38,166.39-20.38,181.04,0,6.62.74,11.67,2.21,15.15,1.47,3.49,3.11,5.22,4.91,5.22,2.78,0,6.05-2.61,9.82-7.84,5.4-8.01,15.63-28.21,30.69-60.61l8.1,19.33c-32.9,72.8-57.13,109.2-72.67,109.2-5.24,0-9.7-4.27-13.38-12.8-3.68-8.53-5.52-20.64-5.52-36.31,0-18.11,1.77-42.32,5.32-72.62-14.56,35.53-32.55,66.71-53.97,93.52-14.23,17.76-26.58,26.65-37.05,26.65-5.72,0-10.22-4.02-13.49-12.03-3.27-8.02-4.91-20.75-4.91-38.19,0-13.6.74-28.26,2.21-43.95,2.13-21.98,7.53-66.09,16.2-132.37,10.96-84.05,16.45-134.46,16.45-151.2,0-9.76-1.64-14.65-4.91-14.65-2.95,0-6.96,3.22-12.03,9.67-5.08,6.45-13.75,22.03-26.03,46.76l-10.8-18.29c21.93-41.8,38.67-69.23,50.21-82.29s20.83-19.59,27.87-19.59c3.93,0,7.12,3.05,9.58,9.16,2.46,6.11,3.68,15.61,3.68,28.51,0,24.07-5.89,83.19-17.68,177.37-10.48,84.76-15.71,133.07-15.71,144.92,0,7.32,1.1,13.6,3.31,18.83,2.21,5.23,4.62,7.85,7.24,7.85,9.15,0,22.15-16.11,39-48.33,16.84-32.21,27.89-68.88,33.12-109.98l26.74-214.74Z"/>
    <path class="cls-1" d="m2269.12,1135.32l-8.35-18.29c20.97-42.7,37.68-71.06,50.13-85.06,12.45-14,23.1-21.01,31.94-21.01,3.44,0,6.14,1.57,8.11,4.7,1.96,3.13,2.95,6.79,2.95,10.97,0,3.13-.41,8.71-1.23,16.72l-11.07,105.15c16.66-39.4,37.58-76.18,62.75-110.35,13.4-17.78,24.43-26.67,33.09-26.67,6.37,0,11.35,4.36,14.95,13.06,3.59,8.71,5.39,21.25,5.39,37.62,0,10.8-.74,22.99-2.2,36.57-2.61,22.65-9.46,71.93-20.55,147.86-10.44,71.06-15.66,118.26-15.66,141.59,0,7.14.49,12.5,1.47,16.07.98,3.58,2.37,5.36,4.17,5.36,4.75,0,12.19-9.75,22.34-29.26,7.2-13.93,14.4-26.82,21.61-38.66l6.14,18.81c-15.06,35.36-30.69,63.78-46.89,85.27-10.31,13.86-18.82,20.79-25.53,20.79-6.22,0-11.05-4.79-14.49-14.37-3.44-9.58-5.16-25.16-5.16-46.76,0-31,9.08-108.15,27.25-231.46,5.56-43.89,8.35-69.49,8.35-76.8,0-10.79-3.03-16.2-9.08-16.2-6.55,0-14.98,7.33-25.29,21.98-15.39,21.63-28.23,47.09-38.55,76.39-6.55,18.84-12.03,48.84-16.45,89.99l-19.89,182.61h-36.58c6.87-52.31,12.85-102.37,17.92-150.16l21.85-198.82c.82-8.02,1.23-13.77,1.23-17.26,0-9.41-1.64-14.12-4.91-14.12-2.62,0-6.38,3.69-11.29,11.06-10.15,14.4-19.64,31.96-28.48,52.68Z"/>
    <path class="cls-1" d="m2500.41,1135.32l-8.35-18.29c20.97-42.7,37.68-71.06,50.13-85.06,12.45-14,23.1-21.01,31.94-21.01,3.44,0,6.14,1.57,8.11,4.7,1.96,3.13,2.95,6.79,2.95,10.97,0,3.13-.41,8.71-1.23,16.72l-11.07,105.15c16.66-39.4,37.58-76.18,62.75-110.35,13.4-17.78,24.43-26.67,33.09-26.67,6.37,0,11.35,4.36,14.95,13.06,3.59,8.71,5.39,21.25,5.39,37.62,0,10.8-.74,22.99-2.2,36.57-2.61,22.65-9.46,71.93-20.55,147.86-10.44,71.06-15.66,118.26-15.66,141.59,0,7.14.49,12.5,1.47,16.07.98,3.58,2.37,5.36,4.17,5.36,4.75,0,12.19-9.75,22.34-29.26,7.2-13.93,14.4-26.82,21.61-38.66l6.14,18.81c-15.06,35.36-30.69,63.78-46.89,85.27-10.31,13.86-18.82,20.79-25.53,20.79-6.22,0-11.05-4.79-14.49-14.37-3.44-9.58-5.16-25.16-5.16-46.76,0-31,9.08-108.15,27.25-231.46,5.56-43.89,8.35-69.49,8.35-76.8,0-10.79-3.03-16.2-9.08-16.2-6.55,0-14.98,7.33-25.29,21.98-15.39,21.63-28.23,47.09-38.55,76.39-6.55,18.84-12.03,48.84-16.45,89.99l-19.89,182.61h-36.58c6.87-52.31,12.85-102.37,17.92-150.16l21.85-198.82c.82-8.02,1.23-13.77,1.23-17.26,0-9.41-1.64-14.12-4.91-14.12-2.62,0-6.38,3.69-11.29,11.06-10.15,14.4-19.64,31.96-28.48,52.68Z"/>
    <path class="cls-1" d="m2732.18,1133.75l-10.8-17.76c16.35-38.31,31.27-65.57,44.75-81.77,13.49-16.2,24.97-24.3,34.45-24.3,5.23,0,9.24,2.44,12.02,7.31,2.78,4.88,4.17,11.49,4.17,19.85,0,10.11-5.31,52.95-15.92,128.53-17.3,123.66-25.95,198.2-25.95,223.62,0,4.88.57,8.97,1.72,12.28,1.14,3.31,2.37,4.96,3.68,4.96,5.24,0,18.66-21.59,40.27-64.79l9.58,19.85c-22.43,44.93-38.79,73.67-49.1,86.21-10.31,12.54-18.74,18.81-25.29,18.81-5.73,0-10.27-3.84-13.63-11.49-3.36-7.66-5.03-18.29-5.03-31.87,0-43.54,12.28-149.95,36.83-319.24,1.14-8.01,1.72-15.15,1.72-21.42,0-6.96-1.47-10.45-4.42-10.45-3.28,0-7,2.79-11.17,8.36-4.17,5.58-13.47,23.34-27.87,53.29Zm96.49-345.88c5.07,0,9.25,3.58,12.52,10.71,3.27,7.14,4.91,16.29,4.91,27.43,0,15.33-2.5,28.83-7.49,40.49-4.99,11.67-10.6,17.5-16.82,17.5-4.91,0-9-3.66-12.28-10.97-3.28-7.31-4.91-16.89-4.91-28.74,0-15.67,2.37-29,7.12-39.97,4.75-10.97,10.39-16.46,16.94-16.46Z"/>
    <path class="cls-1" d="m2852.24,1135.32l-8.35-18.29c20.97-42.7,37.68-71.06,50.13-85.06,12.45-14,23.1-21.01,31.94-21.01,3.44,0,6.14,1.57,8.11,4.7,1.96,3.13,2.95,6.79,2.95,10.97,0,3.13-.41,8.71-1.23,16.72l-11.07,105.15c16.66-39.4,37.58-76.18,62.75-110.35,13.4-17.78,24.43-26.67,33.09-26.67,6.37,0,11.35,4.36,14.95,13.06,3.59,8.71,5.39,21.25,5.39,37.62,0,10.8-.74,22.99-2.2,36.57-2.61,22.65-9.46,71.93-20.55,147.86-10.44,71.06-15.66,118.26-15.66,141.59,0,7.14.49,12.5,1.47,16.07.98,3.58,2.37,5.36,4.17,5.36,4.75,0,12.19-9.75,22.34-29.26,7.2-13.93,14.4-26.82,21.61-38.66l6.14,18.81c-15.06,35.36-30.69,63.78-46.89,85.27-10.31,13.86-18.82,20.79-25.53,20.79-6.22,0-11.05-4.79-14.49-14.37-3.44-9.58-5.16-25.16-5.16-46.76,0-31,9.08-108.15,27.25-231.46,5.56-43.89,8.35-69.49,8.35-76.8,0-10.79-3.03-16.2-9.08-16.2-6.55,0-14.98,7.33-25.29,21.98-15.39,21.63-28.23,47.09-38.55,76.39-6.55,18.84-12.03,48.84-16.45,89.99l-19.89,182.61h-36.58c6.87-52.31,12.85-102.37,17.92-150.16l21.85-198.82c.82-8.02,1.23-13.77,1.23-17.26,0-9.41-1.64-14.12-4.91-14.12-2.62,0-6.38,3.69-11.29,11.06-10.15,14.4-19.64,31.96-28.48,52.68Z"/>
    <path class="cls-1" d="m3241.45,1008.88l19.73-9.45c-11.91,81.52-22.84,163.22-32.79,245.08-7.18,58.52-12.16,107.29-14.93,146.29-1.47,19.51-2.29,44.24-2.45,74.19-.33,50.16-2.95,90.56-7.86,121.22-6.88,42.84-19.69,77.33-38.44,103.45-18.75,26.12-40.98,39.18-66.69,39.18-22.1,0-39.5-11.06-52.19-33.18-12.69-22.12-19.04-47.46-19.04-76.02s5.09-54.52,15.26-78.89c7.55-18.47,23.3-40.75,47.26-66.88,12.14-13.58,23.55-27.51,34.22-41.8-12.17,13.24-21.63,19.85-28.37,19.85-6.09,0-11.47-6.01-16.16-18.03-4.69-12.02-7.03-27.95-7.03-47.81,0-64.09,8.96-127.75,26.89-190.97,17.93-63.22,39.5-110.68,64.72-142.38,15.56-19.5,35.04-29.26,58.46-29.26,4.58,0,10.23.35,16.95,1.04l2.45-15.67Zm-60.71,362.08c-11.15,21.25-32.63,55.21-64.45,101.88-28.04,40.4-45.26,69.49-51.65,87.25-6.4,18.11-9.59,37.27-9.59,57.47s4.14,37.7,12.42,53.55c8.28,15.85,18.33,23.77,30.14,23.77,11.15,0,21.98-5.84,32.47-17.5,10.5-11.67,19.64-28.57,27.43-50.68,7.79-22.12,13.16-47.11,16.11-74.98,2.95-27.87,4.51-64.79,4.68-110.77.16-10.1.98-33.44,2.45-70.01Zm33.29-284.75c-7.85-3.13-14.8-4.7-20.85-4.7-15.54,0-28.86,8.71-39.98,26.12-11.12,17.42-20.6,46.68-28.45,87.78-10.96,58.18-16.43,107.11-16.43,146.82,0,16.38,2.16,30.13,6.5,41.28,4.33,11.15,9.2,16.72,14.59,16.72,6.54,0,14.64-6.7,24.28-20.12,9.64-13.4,17.54-30.21,23.67-50.42,6.13-20.2,12.39-55.03,18.77-104.5l17.9-138.98Z"/>
    <path class="cls-1" d="m3646.5,1497.92l4.91-336.48c1.14-74.53,4.42-144.55,9.82-210.04-9.49,24.74-21.44,61.65-35.85,110.77-43.05,147.34-89.45,285.63-139.21,414.85-3.6-46.32-6.51-100.49-8.72-162.49-2.21-62-3.31-116.33-3.31-163.01,0-65.83,2.9-118.34,8.72-157.53,5.81-39.19,16.82-82.11,33.02-128.79-30.77,7.31-55.2,28.04-73.29,62.18-18.09,34.14-27.13,69.15-27.13,105.02,0,13.24,1.75,26.65,5.27,40.23,4.18,16.38,6.27,27.35,6.27,32.92,0,9.06-1.36,16.55-4.08,22.47-2.72,5.93-6.06,8.88-10.02,8.88-5.28,0-9.56-5.05-12.86-15.15-4.45-13.23-6.68-30.3-6.68-51.2,0-31.69,4.3-64.09,12.89-97.18,8.59-33.09,20.01-60.35,34.25-81.77,14.24-21.42,30.44-37.01,48.61-46.76,9.98-5.22,26.76-10.62,50.33-16.2,8.02-2.09,15.96-4.35,23.82-6.79-35.52,105.89-53.28,212.83-53.28,320.8,0,33.61,1.25,100.65,3.77,201.12,9.63-24.67,18.36-48.47,26.19-71.41,5.39-15.98,19.42-60.29,42.1-132.92,36.56-118.15,63.89-201.37,82.01-249.67,12.87-33.44,27.39-64.61,43.57-93.52-15.74,131.28-23.6,319.84-23.6,565.68l61.66-162.33c16.53-43.89,33.27-95,50.21-153.35,16.94-58.34,28.11-104.93,33.51-139.76,3.44-22.64,5.16-44.06,5.16-64.27s-2.13-40.75-6.38-62.7c-2.62-13.93-3.93-24.03-3.93-30.3,0-9.4,1.6-17.32,4.79-23.77,3.19-6.44,7.24-9.67,12.15-9.67,6.22,0,11.13,5.93,14.73,17.76,5.24,16.03,7.86,37.28,7.86,63.74,0,35.19-5.69,81.51-17.06,138.98-11.38,57.47-36.62,141.42-75.74,251.84-50.42,141.07-91.91,244.35-124.48,309.83Z"/>
    <path class="cls-1" d="m3997.6,1003.65l16.2-7.31-18.41,132.19c-7.37,52.6-14.32,113.21-20.87,181.82-3.6,37.28-5.4,61.31-5.4,72.1s2.04,16.2,6.14,16.2c2.62,0,6.79-3.66,12.52-10.97,10.15-12.88,19.89-28.91,29.22-48.07l7.86,20.38c-18.66,36.23-30.61,58.18-35.85,65.83-10.48,15.33-20.46,26.65-29.95,33.96-6.22,4.87-12.28,7.31-18.17,7.31-4.26,0-7.45-2.09-9.58-6.27-2.13-4.18-3.19-10.27-3.19-18.29,0-5.22.65-12.36,1.96-21.42l9.82-71.06c-14.08,35.88-30.86,66.71-50.33,92.48-11.95,16.02-22.92,24.03-32.9,24.03s-16.78-7.14-21.85-21.42c-6.87-19.15-10.31-44.23-10.31-75.24,0-36.92,4.62-78.02,13.87-123.31,9.25-45.28,21.64-86.38,37.2-123.31,15.55-36.92,31.92-64.09,49.1-81.51,13.26-13.23,30.28-19.85,51.07-19.85,5.24,0,10.56.7,15.96,2.09l5.89-20.38Zm-30.44,79.94c-8.84-3.83-16.29-5.75-22.34-5.75-14.73,0-27.58,8.62-38.55,25.86-10.97,17.24-21.16,48.25-30.57,93-9.41,44.76-14.12,89.43-14.12,134.02,0,23.69,1.88,40.75,5.65,51.2,3.76,10.45,8.67,15.67,14.73,15.67,11.29,0,23.41-12.97,36.34-38.92,12.93-25.94,22.42-63.3,28.48-112.07l20.38-163.01Z"/>
    <path class="cls-1" d="m4110.05,932.07l38.98-31.82-17.64,146.25h50.84l-3.93,37.1h-50.88l-21.42,175.1c-6.8,52.57-10.2,89.12-10.2,109.66,0,9.4.94,16.2,2.82,20.38,1.88,4.18,4.46,6.27,7.73,6.27,5.07,0,12.85-6.44,23.32-19.33,13.75-17.06,26.84-36.39,39.28-58l9.33,24.03c-35.85,57.47-59.83,92.66-71.94,105.54-12.12,12.88-21.85,19.33-29.22,19.33-6.06,0-10.85-4.7-14.36-14.11-3.52-9.4-5.28-24.73-5.28-45.98,0-25.08,3.11-63.39,9.33-114.95l24.99-207.95h-39.77l4.42-37.1h39.82l13.76-114.42Z"/>
    <path class="cls-1" d="m4330.77,1320.8l8.1,22.99c-40.1,81.16-74.48,121.74-103.12,121.74-11.62,0-20.5-8.36-26.64-25.08-6.14-16.72-9.21-43.54-9.21-80.46,0-74.53,10.64-148.73,31.92-222.58,23.9-83.94,52.46-125.92,85.69-125.92,11.62,0,20.5,6.19,26.64,18.55,6.14,12.37,9.21,29.35,9.21,50.94s-3.68,44.93-11.05,66.88c-7.37,21.94-20.54,44.76-39.53,68.44-9.49,11.49-29.79,32.22-60.89,62.18-1.47,18.81-2.21,36.75-2.21,53.82,0,24.74,1.84,41.98,5.52,51.73,3.68,9.76,9.04,14.63,16.08,14.63s14.08-4,22.1-12.02c10.8-10.79,26.6-32.74,47.39-65.83Zm-85.93-75.76c26.35-25.08,46.16-52.07,59.42-80.98,9-20.2,13.5-40.23,13.5-60.09,0-14.97-1.84-26.91-5.52-35.79-3.68-8.88-8.47-13.32-14.36-13.32s-11.95,4.88-17.68,14.63c-7.7,12.89-14.16,32.39-19.4,58.52-7.53,38.32-12.85,77.33-15.96,117.04Z"/>
    <path class="cls-1" d="m4418.42,1451.94h-36.58l17.19-140.55c8.35-68.97,15.63-134.45,21.85-196.45,1.47-15.32,2.21-24.9,2.21-28.74,0-8.36-1.8-12.54-5.4-12.54-2.46,0-6.22,3.58-11.29,10.71-5.08,7.14-14.24,24.82-27.5,53.03l-7.61-18.29c15.71-35.87,31.37-62.78,47-80.72,15.63-17.94,27.61-26.91,35.96-26.91,2.95,0,5.27,1.49,6.99,4.44,1.72,2.96,2.58,6.71,2.58,11.23s-1.08,16.63-3.23,36.23l-10.68,94c16.56-55.6,35.26-103.15,56.09-142.66,10.01-18.88,18.37-28.32,25.09-28.32,4.92,0,9.02,3.4,12.3,10.19,3.28,6.79,4.92,14.72,4.92,23.77s-1.6,17.42-4.78,24.03c-3.19,6.62-11.16,14.46-23.92,23.51-12.1,8.72-21.96,19.17-29.56,31.37-7.61,12.2-15.95,30.83-25.02,55.92-9.08,25.09-15.42,46.95-19.03,65.58-3.61,18.63-9.1,61.91-16.48,129.81l-11.07,101.34Z"/>
    <path class="cls-1" d="m4631.53,1012.53c14.57,0,25.82,6.01,33.76,18.03,7.94,12.02,11.91,25.86,11.91,41.54,0,9.4-1.68,17.59-5.03,24.56-3.36,6.97-7.41,10.45-12.15,10.45-3.11,0-5.81-1.48-8.1-4.44-2.29-2.96-5.57-10.36-9.82-22.21-8.02-22.64-15.96-33.96-23.82-33.96-6.71,0-12.64,5.49-17.8,16.44-5.16,10.96-7.73,24.61-7.73,40.96,0,14.27,1.63,28.1,4.91,41.49,3.27,13.4,11.54,35.06,24.8,64.97,18.17,41.06,27.25,80.02,27.25,116.89s-7.37,69.15-22.1,96.81c-14.73,27.66-33.72,41.48-56.96,41.48-19.48,0-33.97-8.45-43.46-25.34-9.49-16.89-14.24-37.7-14.24-62.44,0-12.19,1.8-22.29,5.4-30.3,3.6-8.01,8.02-12.02,13.26-12.02,4.58,0,8.51,3.22,11.79,9.67,3.27,6.45,4.91,14.03,4.91,22.73,0,3.49-.11,8.02-.33,13.58-.11,4.53-.16,8.36-.16,11.49,0,11.49,2.28,21.25,6.85,29.26,4.4,8.02,10.44,12.02,18.1,12.02,8.81,0,16.55-3.22,23.24-9.65,6.69-6.43,11.91-16.18,15.66-29.23,3.75-13.05,5.63-26,5.63-38.88s-1.76-25.05-5.28-37.57c-3.52-12.52-11.42-33.23-23.69-62.1-17.03-40.35-25.53-79.14-25.53-116.37,0-34.09,6.46-63.93,19.4-89.5,12.93-25.57,29.38-38.35,49.35-38.35Z"/>
    <path class="cls-1" d="m5053.83,1497.92l4.91-336.48c1.14-74.53,4.42-144.55,9.82-210.04-9.49,24.74-21.44,61.65-35.85,110.77-43.05,147.34-89.45,285.63-139.21,414.85-3.6-46.32-6.51-100.49-8.72-162.49-2.21-62-3.31-116.33-3.31-163.01,0-65.83,2.9-118.34,8.72-157.53,5.81-39.19,16.82-82.11,33.02-128.79-30.77,7.31-55.2,28.04-73.29,62.18-18.09,34.14-27.13,69.15-27.13,105.02,0,13.24,1.75,26.65,5.27,40.23,4.18,16.38,6.27,27.35,6.27,32.92,0,9.06-1.36,16.55-4.08,22.47-2.72,5.93-6.06,8.88-10.02,8.88-5.28,0-9.56-5.05-12.86-15.15-4.45-13.23-6.68-30.3-6.68-51.2,0-31.69,4.3-64.09,12.89-97.18,8.59-33.09,20.01-60.35,34.25-81.77,14.24-21.42,30.44-37.01,48.61-46.76,9.98-5.22,26.76-10.62,50.33-16.2,8.02-2.09,15.96-4.35,23.82-6.79-35.52,105.89-53.28,212.83-53.28,320.8,0,33.61,1.25,100.65,3.77,201.12,9.63-24.67,18.36-48.47,26.19-71.41,5.39-15.98,19.42-60.29,42.1-132.92,36.56-118.15,63.89-201.37,82.01-249.67,12.87-33.44,27.39-64.61,43.57-93.52-15.74,131.28-23.6,319.84-23.6,565.68l61.66-162.33c16.53-43.89,33.27-95,50.21-153.35,16.94-58.34,28.11-104.93,33.51-139.76,3.44-22.64,5.16-44.06,5.16-64.27s-2.13-40.75-6.38-62.7c-2.62-13.93-3.93-24.03-3.93-30.3,0-9.4,1.6-17.32,4.79-23.77,3.19-6.44,7.24-9.67,12.15-9.67,6.22,0,11.13,5.93,14.73,17.76,5.24,16.03,7.86,37.28,7.86,63.74,0,35.19-5.69,81.51-17.06,138.98-11.38,57.47-36.62,141.42-75.74,251.84-50.42,141.07-91.91,244.35-124.48,309.83Z"/>
    <path class="cls-1" d="m5366.13,1320.8l8.1,22.99c-40.1,81.16-74.48,121.74-103.12,121.74-11.62,0-20.5-8.36-26.64-25.08-6.14-16.72-9.21-43.54-9.21-80.46,0-74.53,10.64-148.73,31.92-222.58,23.9-83.94,52.46-125.92,85.69-125.92,11.62,0,20.5,6.19,26.64,18.55,6.14,12.37,9.21,29.35,9.21,50.94s-3.68,44.93-11.05,66.88c-7.37,21.94-20.54,44.76-39.53,68.44-9.49,11.49-29.79,32.22-60.89,62.18-1.47,18.81-2.21,36.75-2.21,53.82,0,24.74,1.84,41.98,5.52,51.73,3.68,9.76,9.04,14.63,16.08,14.63s14.08-4,22.1-12.02c10.8-10.79,26.6-32.74,47.39-65.83Zm-85.93-75.76c26.35-25.08,46.16-52.07,59.42-80.98,9-20.2,13.5-40.23,13.5-60.09,0-14.97-1.84-26.91-5.52-35.79s-8.47-13.32-14.36-13.32-11.95,4.88-17.68,14.63c-7.7,12.89-14.16,32.39-19.4,58.52-7.53,38.32-12.85,77.33-15.96,117.04Z"/>
    <path class="cls-1" d="m5510.5,1326.02l8.35,18.81c-12.77,30.65-27.87,58.61-45.3,83.86-17.43,25.25-31.8,37.88-43.09,37.88-5.08,0-9.25-4.1-12.52-12.28-3.28-8.18-4.91-19.41-4.91-33.7,0-27.86,5.07-85.69,15.2-173.46l26.48-229.37c9.65-82.89,17.74-138.46,24.28-166.67,10.14-42.68,24.48-75.82,43.03-99.41,18.55-23.59,38.13-35.39,58.73-35.39,7.03,0,12.55,3.6,16.55,10.78,4,7.19,6.01,15.87,6.01,26.04,0,11.23-1.96,20.44-5.87,27.63-3.91,7.19-9.62,10.78-17.12,10.78-4.89,0-11.83-1.74-20.8-5.22-7.83-2.78-15.09-4.18-21.77-4.18s-11.74,2.95-15.17,8.84c-4.73,8.33-9.01,25.83-12.84,52.53-3.83,26.69-10.07,79.38-18.71,158.07l-24.49,218.92c-12.12,109.72-18.17,167.02-18.17,171.9,0,11.15,1.88,16.72,5.65,16.72s8.84-4.52,15.72-13.58c13.59-18.11,27.19-41.28,40.78-69.49Z"/>
    <path class="cls-1" d="m5631.05,1326.02l8.35,18.81c-12.77,30.65-27.87,58.61-45.3,83.86-17.43,25.25-31.8,37.88-43.09,37.88-5.08,0-9.25-4.1-12.52-12.28-3.28-8.18-4.91-19.41-4.91-33.7,0-27.86,5.07-85.69,15.2-173.46l26.48-229.37c9.65-82.89,17.74-138.46,24.28-166.67,10.14-42.68,24.48-75.82,43.03-99.41,18.55-23.59,38.13-35.39,58.73-35.39,7.03,0,12.55,3.6,16.55,10.78,4,7.19,6.01,15.87,6.01,26.04,0,11.23-1.96,20.44-5.87,27.63-3.91,7.19-9.62,10.78-17.12,10.78-4.89,0-11.83-1.74-20.8-5.22-7.83-2.78-15.09-4.18-21.77-4.18s-11.74,2.95-15.17,8.84c-4.73,8.33-9.01,25.83-12.84,52.53-3.83,26.69-10.07,79.38-18.71,158.07l-24.49,218.92c-12.12,109.72-18.17,167.02-18.17,171.9,0,11.15,1.88,16.72,5.65,16.72s8.84-4.52,15.72-13.58c13.59-18.11,27.19-41.28,40.78-69.49Z"/>
    <path class="cls-1" d="m5656.83,1135.32l-8.35-18.29c20.97-42.7,37.68-71.06,50.13-85.06,12.45-14,23.1-21.01,31.94-21.01,3.44,0,6.14,1.57,8.11,4.7,1.96,3.13,2.95,6.79,2.95,10.97,0,3.13-.41,8.71-1.23,16.72l-11.07,105.15c16.66-39.4,37.58-76.18,62.75-110.35,13.4-17.78,24.43-26.67,33.09-26.67,6.37,0,11.35,4.36,14.95,13.06,3.59,8.71,5.39,21.25,5.39,37.62,0,10.8-.74,22.99-2.2,36.57-2.61,22.65-9.46,71.93-20.55,147.86-10.44,71.06-15.66,118.26-15.66,141.59,0,7.14.49,12.5,1.47,16.07.98,3.58,2.37,5.36,4.17,5.36,4.75,0,12.19-9.75,22.34-29.26,7.2-13.93,14.4-26.82,21.61-38.66l6.14,18.81c-15.06,35.36-30.69,63.78-46.89,85.27-10.31,13.86-18.82,20.79-25.53,20.79-6.22,0-11.05-4.79-14.49-14.37-3.44-9.58-5.16-25.16-5.16-46.76,0-31,9.08-108.15,27.25-231.46,5.56-43.89,8.35-69.49,8.35-76.8,0-10.79-3.03-16.2-9.08-16.2-6.55,0-14.98,7.33-25.29,21.98-15.39,21.63-28.23,47.09-38.55,76.39-6.55,18.84-12.03,48.84-16.45,89.99l-19.89,182.61h-36.58c6.87-52.31,12.85-102.37,17.92-150.16l21.85-198.82c.82-8.02,1.23-13.77,1.23-17.26,0-9.41-1.64-14.12-4.91-14.12-2.62,0-6.38,3.69-11.29,11.06-10.15,14.4-19.64,31.96-28.48,52.68Z"/>
    <path class="cls-1" d="m6009.4,1320.8l8.1,22.99c-40.1,81.16-74.48,121.74-103.12,121.74-11.62,0-20.5-8.36-26.64-25.08-6.14-16.72-9.21-43.54-9.21-80.46,0-74.53,10.64-148.73,31.92-222.58,23.9-83.94,52.46-125.92,85.69-125.92,11.62,0,20.5,6.19,26.64,18.55,6.14,12.37,9.21,29.35,9.21,50.94s-3.68,44.93-11.05,66.88c-7.37,21.94-20.54,44.76-39.53,68.44-9.49,11.49-29.79,32.22-60.89,62.18-1.47,18.81-2.21,36.75-2.21,53.82,0,24.74,1.84,41.98,5.52,51.73,3.68,9.76,9.04,14.63,16.08,14.63s14.08-4,22.1-12.02c10.8-10.79,26.6-32.74,47.39-65.83Zm-85.93-75.76c26.35-25.08,46.16-52.07,59.42-80.98,9-20.2,13.5-40.23,13.5-60.09,0-14.97-1.84-26.91-5.52-35.79-3.68-8.88-8.47-13.32-14.36-13.32s-11.95,4.88-17.68,14.63c-7.7,12.89-14.16,32.39-19.4,58.52-7.53,38.32-12.85,77.33-15.96,117.04Z"/>
    <path class="cls-1" d="m6159.42,1012.53c14.57,0,25.82,6.01,33.76,18.03,7.94,12.02,11.91,25.86,11.91,41.54,0,9.4-1.68,17.59-5.03,24.56-3.36,6.97-7.41,10.45-12.15,10.45-3.11,0-5.81-1.48-8.1-4.44-2.29-2.96-5.57-10.36-9.82-22.21-8.02-22.64-15.96-33.96-23.82-33.96-6.71,0-12.64,5.49-17.8,16.44-5.16,10.96-7.73,24.61-7.73,40.96,0,14.27,1.63,28.1,4.91,41.49,3.27,13.4,11.54,35.06,24.8,64.97,18.17,41.06,27.25,80.02,27.25,116.89s-7.37,69.15-22.1,96.81c-14.73,27.66-33.72,41.48-56.96,41.48-19.48,0-33.97-8.45-43.46-25.34-9.49-16.89-14.24-37.7-14.24-62.44,0-12.19,1.8-22.29,5.4-30.3,3.6-8.01,8.02-12.02,13.26-12.02,4.58,0,8.51,3.22,11.79,9.67,3.27,6.45,4.91,14.03,4.91,22.73,0,3.49-.11,8.02-.33,13.58-.11,4.53-.16,8.36-.16,11.49,0,11.49,2.28,21.25,6.85,29.26,4.4,8.02,10.44,12.02,18.1,12.02,8.81,0,16.55-3.22,23.24-9.65,6.69-6.43,11.91-16.18,15.66-29.23,3.75-13.05,5.63-26,5.63-38.88s-1.76-25.05-5.28-37.57c-3.52-12.52-11.42-33.23-23.69-62.1-17.03-40.35-25.53-79.14-25.53-116.37,0-34.09,6.46-63.93,19.4-89.5,12.93-25.57,29.38-38.35,49.35-38.35Z"/>
    <path class="cls-1" d="m6320.23,1012.53c14.57,0,25.82,6.01,33.76,18.03,7.94,12.02,11.91,25.86,11.91,41.54,0,9.4-1.68,17.59-5.03,24.56-3.36,6.97-7.41,10.45-12.15,10.45-3.11,0-5.81-1.48-8.1-4.44-2.29-2.96-5.57-10.36-9.82-22.21-8.02-22.64-15.96-33.96-23.82-33.96-6.71,0-12.64,5.49-17.8,16.44-5.16,10.96-7.73,24.61-7.73,40.96,0,14.27,1.63,28.1,4.91,41.49,3.27,13.4,11.54,35.06,24.8,64.97,18.17,41.06,27.25,80.02,27.25,116.89s-7.37,69.15-22.1,96.81c-14.73,27.66-33.72,41.48-56.96,41.48-19.48,0-33.97-8.45-43.46-25.34-9.49-16.89-14.24-37.7-14.24-62.44,0-12.19,1.8-22.29,5.4-30.3,3.6-8.01,8.02-12.02,13.26-12.02,4.58,0,8.51,3.22,11.79,9.67,3.27,6.45,4.91,14.03,4.91,22.73,0,3.49-.11,8.02-.33,13.58-.11,4.53-.16,8.36-.16,11.49,0,11.49,2.28,21.25,6.85,29.26,4.4,8.02,10.44,12.02,18.1,12.02,8.81,0,16.55-3.22,23.24-9.65,6.69-6.43,11.91-16.18,15.66-29.23,3.75-13.05,5.63-26,5.63-38.88s-1.76-25.05-5.28-37.57c-3.52-12.52-11.42-33.23-23.69-62.1-17.03-40.35-25.53-79.14-25.53-116.37,0-34.09,6.46-63.93,19.4-89.5,12.93-25.57,29.38-38.35,49.35-38.35Z"/>
  </g>
  <g>
    <path class="cls-3" d="m413.9,1217.19c67.95,0,67.95-386.4,135.9-386.4s67.95,386.4,135.9,386.4,67.95-386.4,135.91-386.4,67.95,386.4,135.9,386.4,67.96-386.4,135.92-386.4,67.96,386.4,135.92,386.4"/>
    <g>
      <path class="cls-4" d="m821.62,368.68c361.92,0,655.31,293.39,655.31,655.31s-293.39,655.31-655.31,655.31"/>
      <path class="cls-2" d="m821.62,1679.3c-361.92,0-655.31-293.39-655.31-655.31S459.71,368.68,821.62,368.68"/>
    </g>
  </g>
</svg>